<svg width="32" height="32" viewBox="0 0 32 32" fill="none" xmlns="http://www.w3.org/2000/svg">
<mask id="mask0_21_12045" style="mask-type:alpha" maskUnits="userSpaceOnUse" x="1" y="1" width="30" height="30">
<rect x="1.3335" y="1.33331" width="29.3333" height="29.3333" fill="white"/>
</mask>
<g mask="url(#mask0_21_12045)">
<path fill-rule="evenodd" clip-rule="evenodd" d="M7.74549 7.74383V12.1408C7.75118 12.2646 7.74452 12.3887 7.72563 12.5113C7.62319 12.9629 7.20003 13.2671 6.73932 13.2205C6.2786 13.1738 5.92504 12.7909 5.91521 12.3279C5.91012 11.8187 5.91182 11.3094 5.91351 10.8001C5.91436 10.5455 5.91521 10.2909 5.91521 10.0363V6.88445C5.91521 6.2932 6.29716 5.91202 6.87924 5.91049C8.68355 5.90744 10.4881 5.90744 12.2929 5.91049C12.846 5.91049 13.2547 6.31612 13.2478 6.83786C13.2417 7.34661 12.8383 7.73924 12.2983 7.74154C11.3883 7.74459 10.4783 7.74357 9.5681 7.74256H9.56809H9.56808H9.56807C9.11288 7.74205 8.65763 7.74154 8.20229 7.74154L7.74549 7.74383ZM16.0101 15.0833H28.6441C28.7682 15.0777 28.8925 15.0841 29.0153 15.1024C29.4624 15.2084 29.7619 15.6289 29.7159 16.086C29.67 16.5431 29.2927 16.8956 28.8335 16.9105C28.0478 16.9169 27.2621 16.9162 26.4764 16.9155C26.2309 16.9153 25.9853 16.9151 25.7398 16.9151H3.33645C3.21247 16.9203 3.08828 16.9123 2.96597 16.8914C2.51482 16.7834 2.21549 16.3553 2.26884 15.8945C2.32218 15.4337 2.71138 15.0854 3.17527 15.0833C4.01532 15.0792 4.85538 15.0806 5.69565 15.0819H5.69582H5.69599H5.69616C6.11647 15.0826 6.53684 15.0833 6.95729 15.0833H16.0101ZM23.1912 7.74304H24.25C24.25 9.25019 24.25 10.7107 24.2507 12.1713C24.2453 12.2948 24.2537 12.4186 24.2759 12.5403C24.3903 12.9914 24.8247 13.2852 25.286 13.2235C25.7473 13.1618 26.0892 12.7642 26.081 12.2989C26.0861 10.4844 26.0861 8.66989 26.081 6.8554C26.081 6.27713 25.6876 5.9097 25.088 5.9097H19.7606C19.1571 5.91047 18.7423 6.29317 18.7484 6.83706C18.7546 7.36873 19.1678 7.74304 19.7537 7.74304H23.1912ZM7.75016 24.25H11.7697H12.3136C12.8484 24.2607 13.2502 24.6556 13.2486 25.1666C13.2471 25.6777 12.8453 26.0764 12.3091 26.0833C11.6276 26.0874 10.9466 26.086 10.2656 26.0847H10.2655C9.9251 26.084 9.58471 26.0833 9.24433 26.0833H6.92364C6.27815 26.0833 5.91683 25.7128 5.91683 25.065V19.7652C5.91683 19.1594 6.29877 18.7446 6.83884 18.7484C7.37891 18.7523 7.7494 19.167 7.7494 19.7774V23.9887L7.75016 24.25ZM24.2502 23.8848V24.2499H19.8196C19.6952 24.245 19.5706 24.2545 19.4484 24.2782C19.0013 24.3834 18.7022 24.8046 18.7502 25.2613C18.7983 25.7304 19.1902 26.0817 19.6944 26.0817H25.05C25.7153 26.081 26.0797 25.7189 26.0797 25.0551V19.7842C26.0837 19.6701 26.0737 19.556 26.0499 19.4443C25.9401 18.9928 25.5086 18.6959 25.0476 18.7546C24.5867 18.8133 24.2434 19.2089 24.2502 19.6735V23.8848Z" fill="white"/>
</g>
</svg>
